<svg version="1" xmlns="http://www.w3.org/2000/svg" width="341.333" height="341.333" viewBox="0 0 256.000000 256.000000"><path d="M164.8 82.9c-7.3 2.4-11.6 5.1-16.6 10.5-8.4 9.1-11.7 19.2-11.6 35.6.1 24.1 9.4 39.2 27.3 44.4 7.2 2.1 23.5 2 32.1-.2l6.5-1.7.3-6.9c.3-6.7.3-6.8-2-6.2-24.9 6.7-38 3.3-45-11.9-2-4.4-2.3-6.5-2.3-18s.3-13.6 2.3-18c2.8-6 7.3-10.9 12.7-13.8 5.8-3.1 16.8-2.9 25.7.5l6.7 2.5 2.7-6.4c1.5-3.5 2.5-6.6 2.2-6.8-.3-.3-3.2-1.5-6.4-2.7-8.4-3.1-26.6-3.6-34.6-.9zM47 128.5V174h18.3c20.4 0 26.1-1 35.9-6.2 11-5.9 17.8-16.7 19.9-31.6 3-21.1-5.3-40.4-20.7-48.1-8.5-4.3-13.7-5.1-34.1-5.1H47v45.5zm38-31.4c7.2 1.5 12.9 6.2 16.4 13.3 3.9 7.7 4.8 20.4 2.1 30.2-3.6 13.5-12.7 19.4-30.7 20.2l-10.8.5V96h9c4.9 0 11.2.5 14 1.1z"/></svg>